<?xml version="1.0" encoding="utf-8"?>
<!-- Generator: Adobe Illustrator 26.0.3, SVG Export Plug-In . SVG Version: 6.00 Build 0)  -->
<svg version="1.0" id="katman_1" xmlns="http://www.w3.org/2000/svg" xmlns:xlink="http://www.w3.org/1999/xlink" x="0px" y="0px"
	 viewBox="0 0 657 483.6" style="enable-background:new 0 0 657 483.6;" xml:space="preserve">
<style type="text/css">
	.st0{fill:#00A3E4;}
	.st1{fill:#F8AE2A;}
	.st2{clip-path:url(#SVGID_00000174567763391236039730000013500083078198121653_);}
	.st3{opacity:0.8;}
	.st4{clip-path:url(#SVGID_00000034811471520964948930000007275070598915685551_);}
	.st5{clip-path:url(#SVGID_00000055666919124865675690000006045724571075379356_);}
	.st6{clip-path:url(#SVGID_00000047053100485051502050000006972713251293826461_);}
	.st7{clip-path:url(#SVGID_00000053536786923292729350000012748825176597213118_);}
	.st8{clip-path:url(#SVGID_00000022528545089665109640000006931587105403908283_);}
	.st9{clip-path:url(#SVGID_00000165918694829606741510000001419418119691738776_);}
	.st10{fill:url(#SVGID_00000176730623230030723480000013768082654161413549_);}
	.st11{fill:#FFFFFF;}
	.st12{fill:#414042;}
</style>
<g>
	<g id="Layer_1">
		<path class="st0" d="M525.5,261.8c-4.5-0.7-9-0.7-13.4,0h-0.2c-4.5,0.8-8.9,2.2-13,4.4c-7.2,3.3-2.2,11.5,3.5,8.2
			c6.6-3.9,13.9-6.2,22-5.8C529.6,269,529.9,262.4,525.5,261.8"/>
		<path class="st0" d="M438.1,273.8c3-3.3,5.5-7.1,7.4-11.2l0.1-0.2c1.8-4.2,3-8.7,3.4-13.2c1.2-7.8-8.4-8.1-8.8-1.6
			c-0.4,7.7-2.4,15-7.2,21.6C429.8,273.2,435.3,277.1,438.1,273.8"/>
		<path class="st1" d="M574.4,231.9h-0.1l-1.9-0.4c-1.2-0.3-2.9-0.6-5-1c-1.1-0.2-2.2-0.4-3.4-0.6s-2.5-0.4-3.8-0.6
			c-1.3-0.2-2.7-0.4-4.1-0.5c-1.4-0.1-2.8-0.2-4.3-0.4c-1.4-0.1-2.9-0.2-4.3-0.2c-1.4,0-2.8-0.1-4.2-0.1H543c0.6,2,0.8,4.1,0.5,6.2
			h0.1c1.3-0.1,2.6-0.2,3.9-0.2c1.3,0,2.7-0.1,4.1-0.1s2.7,0,4.1,0.1c1.3,0.1,2.7,0.1,4,0.2c1.3,0.1,2.5,0.2,3.7,0.3
			c1.2,0.1,2.3,0.2,3.3,0.4c2,0.3,3.8,0.5,5,0.7l1.9,0.3h0c1.2,0.2,2.3-0.6,2.4-1.8C576.1,233.3,575.5,232.3,574.4,231.9"/>
		<path class="st0" d="M543,228.1c-1.6-4.8-5.5-8.6-10.3-10c-20.3-6.4-47.4-7.3-65,0.5c-7.6,3.2-13.4,9.7-15.7,17.6
			c-4.2,14.4,4.2,29.5,18.6,33.7c8.8,2.5,18.3,0.5,25.3-5.5c8.7-7.5,15.6-15.7,33.6-17.3c7.2-0.6,11.9-4.4,13.7-10.7
			c0.2-0.7,0.3-1.4,0.5-2.1C543.7,232.3,543.5,230.2,543,228.1"/>
		<g>
			<defs>
				<path id="SVGID_1_" d="M467.7,218.6c-7.6,3.2-13.4,9.7-15.7,17.6c-4.2,14.4,4.2,29.5,18.6,33.7c8.8,2.5,18.3,0.5,25.3-5.5
					c8.7-7.5,15.6-15.7,33.6-17.3c7.2-0.6,11.9-4.4,13.6-10.7c0.2-0.7,0.4-1.4,0.5-2.1c0.3-2.1,0.1-4.2-0.5-6.2
					c-1.6-4.8-5.5-8.6-10.3-10c-11-3.4-22.5-5.1-34-5.1C487.3,213,476.3,214.8,467.7,218.6"/>
			</defs>
			<clipPath id="SVGID_00000109726364250919857910000001936519868168060594_">
				<use xlink:href="#SVGID_1_"  style="overflow:visible;"/>
			</clipPath>
			<g style="clip-path:url(#SVGID_00000109726364250919857910000001936519868168060594_);">
				<g class="st3">
					<g>
						<defs>
							<rect id="SVGID_00000173853601272810180210000006742895781818528929_" x="434.7" y="189.2" width="128" height="102.8"/>
						</defs>
						<clipPath id="SVGID_00000173148302601681799150000010287960902255491747_">
							<use xlink:href="#SVGID_00000173853601272810180210000006742895781818528929_"  style="overflow:visible;"/>
						</clipPath>
						<g style="clip-path:url(#SVGID_00000173148302601681799150000010287960902255491747_);">
							<g>
								<defs>
									<rect id="SVGID_00000103246990080326051270000014253227613508765858_" x="444.7" y="206.2" width="111.2" height="66.1"/>
								</defs>
								<clipPath id="SVGID_00000015346919728395420510000013607804819551554996_">
									<use xlink:href="#SVGID_00000103246990080326051270000014253227613508765858_"  style="overflow:visible;"/>
								</clipPath>
								<g style="clip-path:url(#SVGID_00000015346919728395420510000013607804819551554996_);">
									<g>
										<g>
											<defs>
												
													<rect id="SVGID_00000039825688416089228050000006550086168789928885_" x="434.7" y="189.2" width="128" height="102.8"/>
											</defs>
											<clipPath id="SVGID_00000018225704010229097830000015200996604170612118_">
												<use xlink:href="#SVGID_00000039825688416089228050000006550086168789928885_"  style="overflow:visible;"/>
											</clipPath>
											<g style="clip-path:url(#SVGID_00000018225704010229097830000015200996604170612118_);">
												<g>
													<defs>
														
															<rect id="SVGID_00000151509316046465941580000009228636354375198100_" x="444.7" y="206.2" width="111.1" height="66.6"/>
													</defs>
													<clipPath id="SVGID_00000144323645508280761640000013489471146519202474_">
														<use xlink:href="#SVGID_00000151509316046465941580000009228636354375198100_"  style="overflow:visible;"/>
													</clipPath>
													<g style="clip-path:url(#SVGID_00000144323645508280761640000013489471146519202474_);">
														<g>
															<g>
																<defs>
																	
																		<rect id="SVGID_00000130634917150128172550000008566377125388444561_" x="434.7" y="189.2" width="128" height="102.8"/>
																</defs>
																<clipPath id="SVGID_00000173131673061338825840000012797059504009652110_">
																	<use xlink:href="#SVGID_00000130634917150128172550000008566377125388444561_"  style="overflow:visible;"/>
																</clipPath>
																<g style="clip-path:url(#SVGID_00000173131673061338825840000012797059504009652110_);">
																	<g>
																		<defs>
																			<path id="SVGID_00000036231367205714542180000011992307407191149497_" d="M468.1,216c-8,3.5-14.6,10-17.2,18.8
																				c-4.4,15.4,4.5,31.5,19.9,35.9c0.1,0,0.3,0.1,0.4,0.1c10,2.8,19.6-0.3,27.2-6.4c10.1-8,15-16.9,37.3-19.7
																				c7.8-1,12.7-3,14.7-9.6c0.2-0.7,0.4-1.5,0.5-2.3c0.3-2.2,0.2-4.5-0.5-6.6c-1.7-5.2-6-9.3-11.3-10.7
																				c-12.1-3.6-24.6-5.4-37.2-5.4C489.4,210.1,477.5,211.9,468.1,216"/>
																		</defs>
																		<clipPath id="SVGID_00000175293560485964847040000000558695402387442053_">
																			<use xlink:href="#SVGID_00000036231367205714542180000011992307407191149497_"  style="overflow:visible;"/>
																		</clipPath>
																		<g style="clip-path:url(#SVGID_00000175293560485964847040000000558695402387442053_);">
																			
																				<linearGradient id="SVGID_00000141439945481777472890000012339792237414854542_" gradientUnits="userSpaceOnUse" x1="-1.8579" y1="-188.2256" x2="0.3021" y2="-188.2256" gradientTransform="matrix(-4.0588 22.3342 22.3342 4.0588 4697.3989 1034.3138)">
																				<stop  offset="0" style="stop-color:#FFFFFF"/>
																				<stop  offset="0.27" style="stop-color:#ACCADA"/>
																				<stop  offset="0.53" style="stop-color:#639AB9"/>
																				<stop  offset="0.75" style="stop-color:#2D77A1"/>
																				<stop  offset="0.91" style="stop-color:#0C6293"/>
																				<stop  offset="1" style="stop-color:#005A8D"/>
																			</linearGradient>
																			<polygon style="fill:url(#SVGID_00000141439945481777472890000012339792237414854542_);" points="435.1,271.5 
																				449.7,191.6 562.3,212.1 547.8,292 																			"/>
																		</g>
																	</g>
																</g>
															</g>
														</g>
													</g>
												</g>
											</g>
										</g>
									</g>
								</g>
							</g>
						</g>
					</g>
				</g>
			</g>
		</g>
		<path class="st11" d="M537.2,234.7c-1.3,4.3-5.8,6.9-10.2,5.6c-4.3-1.3-6.9-5.8-5.6-10.2c1.3-4.3,5.8-6.9,10.2-5.6
			C535.9,225.8,538.4,230.3,537.2,234.7"/>
		<path class="st12" d="M534.9,230.2c0,0.1,0,0.2,0,0.2c0,1.2-0.9,2.1-2.1,2.1c-1.2,0-2.1-0.9-2.1-2.1c0-1.1,0.9-2,2-2.1l-0.3-0.1
			c-2.2-0.6-4.6,0.6-5.2,2.9c-0.6,2.2,0.6,4.6,2.9,5.2s4.6-0.6,5.2-2.9C535.7,232.4,535.5,231.2,534.9,230.2"/>
		<path class="st0" d="M547.2,210.7c-0.2-0.1-0.5,0-0.6,0.2c-0.2,0.2-0.1,0.5,0.1,0.6c0,0,0,0,0.1,0c4.4,2.6,5.3,9.4,0,11.8v-0.2
			c0.1-0.6,0.1-1.2,0.1-1.8c0-0.7-0.1-1.4-0.3-2.1c-0.2-0.7-0.5-1.5-0.8-2.2c-0.8-1.4-1.8-2.7-3.1-3.7c-0.6-0.5-1.3-0.9-2-1.3
			c-0.7-0.4-1.4-0.7-2.2-0.9c-0.7-0.2-1.4-0.4-2.1-0.5c-0.6-0.1-1.3-0.2-1.9-0.2c-0.5,0-1.1,0-1.6,0.1c-0.4,0-0.8,0.1-1.3,0.2
			c-0.2,0-0.4,0.1-0.6,0.1l-0.2,0.1l-0.3,0.1c-0.3,0.1-0.5,0.4-0.4,0.7c0,0.1,0.1,0.3,0.2,0.4c0.1,0.1,0.3,0.1,0.4,0.1l0.3-0.1h0.2
			c0.2,0,0.3-0.1,0.6-0.1c0.4-0.1,0.7-0.1,1.1-0.1c0.5,0,1,0,1.5,0c0.6,0.1,1.2,0.1,1.7,0.3c0.6,0.1,1.3,0.3,1.9,0.6
			c0.6,0.3,1.3,0.6,1.9,0.9c0.6,0.4,1.2,0.8,1.7,1.3c1,0.9,1.9,2,2.5,3.2c0.3,0.6,0.4,1.1,0.6,1.7c0.1,0.5,0.1,1.1,0.1,1.6
			c0,0.5-0.1,0.9-0.2,1.3c-0.1,0.3-0.2,0.7-0.3,1c-0.1,0.2-0.1,0.3-0.2,0.4l-0.1,0.2l-0.1,0.3l0,0l0,0c0,0.1,0,0.1-0.1,0.2l0,0
			c0,0.1,0,0.2,0,0.2c0,0.1,0,0.2,0.1,0.3c0.2,0.5,0.6,0.8,1.2,0.9c0.1,0,0.2,0,0.4-0.1c9.7-3,7.4-13.2,1.9-15.6"/>
		<path class="st1" d="M356.6,229.3c-6-0.2-11.7,2.6-15.4,7.3c-2.9-4.8-8.1-7.3-14.2-7.3c-5.6,0-9.8,2-12.8,5.3v-4h-13.8v43.3h13.8
			v-21.2c0-7.2,3.3-11,8.3-11c4.1,0,7.3,3.1,7.3,8v24.2h13.8v-21.2c0-7.2,3.4-11,8.5-11c4.1,0,7.2,3.1,7.2,8v24.2h13.7v-27
			C373.2,236.3,365.8,229.3,356.6,229.3"/>
		<path class="st1" d="M391.1,247.3c1.2-4.1,4.9-6.8,9.1-6.8c4.2-0.1,7.8,2.7,8.7,6.8H391.1z M390.8,255.8h31.8v-3.5
			c-0.3-14.2-10.1-23-22.4-23c-12.6,0-23,9.3-23,23s10.4,23,22.9,23c9.5,0,17.1-4,21-12.4l-12.4-2.6c-2.3,3.3-5.7,4-8.6,4
			C395.4,264.3,391.9,261.1,390.8,255.8"/>
		<path class="st0" d="M106.9,261.1c-1.9,1-4.1,1.6-6.3,1.7c-3.6,0-5.8-1.8-5.8-6.3v-15h12.8v-11H94.8v-12.7H81V258
			c0,11.4,6.5,17.3,17.3,17.3c4.2,0,8.2-1.1,11.8-3.2L106.9,261.1z"/>
		<path class="st0" d="M169.9,263.5c-6,0-10.4-4.5-10.4-11.2s4.4-11.2,10.4-11.2c5.6,0,10.6,4.6,10.6,11.2
			C180.5,258.9,175.5,263.5,169.9,263.5 M194.3,230.6h-13.8v3.5c-3.4-3-7.9-4.8-13.5-4.8c-11.5,0-21.1,9.3-21.1,23s9.7,23,21.1,23
			c4.9,0.2,9.8-1.6,13.5-4.8v3.5h13.8L194.3,230.6z"/>
		<path class="st0" d="M222.5,263.5c-6,0-10.4-4.5-10.4-11.2s4.4-11.2,10.4-11.2c5.6,0,10.6,4.6,10.6,11.2S228.1,263.5,222.5,263.5
			 M246.9,211.8h-13.9V234c-3.4-3-7.9-4.8-13.5-4.8c-11.5,0-21.1,9.3-21.1,23s9.7,23,21.1,23c5.6,0,10.1-1.7,13.5-4.8v3.5h13.8
			L246.9,211.8z"/>
		<path class="st0" d="M264.9,247.3c1.2-4.1,4.9-6.8,9.1-6.8c4.2-0.1,7.8,2.7,8.7,6.8H264.9z M264.6,255.8h31.8v-3.5
			c-0.2-14.2-10.1-23-22.4-23c-12.6,0-23,9.3-23,23s10.4,23,22.9,23c9.5,0,17.1-4,21-12.4l-12.4-2.6c-2.3,3.3-5.7,4-8.6,4
			C269.3,264.2,265.7,261,264.6,255.8"/>
		<path class="st0" d="M143.8,230h-0.4c-7.1,0-11.8,3.7-14.9,8.9v-8.3h-13.8v43.3h13.8v-13.6c0-11.1,5.2-16.2,14.8-16.2L143.8,230z"
			/>
	</g>
</g>
</svg>
